<svg width="32" height="33" viewBox="0 0 32 33" fill="none" xmlns="http://www.w3.org/2000/svg">
<path d="M26.6667 2.74438H5.33341C3.86675 2.74438 2.66675 3.94438 2.66675 5.41105V26.1977C2.66675 27.3844 4.10675 27.9844 4.94675 27.1444L8.00008 24.0777H26.6667C28.1334 24.0777 29.3334 22.8777 29.3334 21.4111V5.41105C29.3334 3.94438 28.1334 2.74438 26.6667 2.74438ZM18.0934 15.5044L16.6001 18.7577C16.5471 18.8741 16.4617 18.9728 16.3541 19.042C16.2465 19.1112 16.1213 19.148 15.9934 19.148C15.8655 19.148 15.7403 19.1112 15.6327 19.042C15.5252 18.9728 15.4398 18.8741 15.3867 18.7577L13.8934 15.5044L10.6401 14.0111C10.5237 13.958 10.425 13.8726 10.3558 13.7651C10.2866 13.6575 10.2498 13.5323 10.2498 13.4044C10.2498 13.2765 10.2866 13.1513 10.3558 13.0437C10.425 12.9361 10.5237 12.8507 10.6401 12.7977L13.8934 11.3044L15.3867 8.05105C15.4398 7.93466 15.5252 7.83598 15.6327 7.76678C15.7403 7.69758 15.8655 7.66079 15.9934 7.66079C16.1213 7.66079 16.2465 7.69758 16.3541 7.76678C16.4617 7.83598 16.5471 7.93466 16.6001 8.05105L18.0934 11.3044L21.3467 12.7977C21.4631 12.8507 21.5618 12.9361 21.631 13.0437C21.7002 13.1513 21.737 13.2765 21.737 13.4044C21.737 13.5323 21.7002 13.6575 21.631 13.7651C21.5618 13.8726 21.4631 13.958 21.3467 14.0111L18.0934 15.5044Z" fill="white"/>
</svg>
