<svg width="32" height="33" viewBox="0 0 32 33" fill="none" xmlns="http://www.w3.org/2000/svg">
<path d="M12.7521 11.7176L13.4388 14.2016C14.0855 16.5416 14.4081 17.7122 15.3588 18.2442C16.3095 18.7776 17.5161 18.4629 19.9295 17.8362L22.4895 17.1696C24.9028 16.5429 26.1095 16.2296 26.6588 15.3082C27.2081 14.3856 26.8855 13.2149 26.2375 10.8749L25.5521 8.39222C24.9055 6.05089 24.5815 4.88022 23.6321 4.34822C22.6801 3.81489 21.4735 4.12955 19.0601 4.75755L16.5001 5.42155C14.0868 6.04822 12.8801 6.36289 12.3321 7.28555C11.7828 8.20689 12.1055 9.37755 12.7521 11.7176Z" fill="white"/>
<path d="M3.03601 7.07351C3.07114 6.94688 3.13088 6.82841 3.21182 6.72488C3.29277 6.62135 3.39333 6.53479 3.50775 6.47015C3.62217 6.40551 3.7482 6.36406 3.87866 6.34816C4.00911 6.33227 4.14141 6.34224 4.26801 6.37751L6.53867 7.00684C7.14046 7.17028 7.68964 7.48684 8.13268 7.92568C8.57572 8.36451 8.8975 8.91064 9.06667 9.51084L11.9347 19.8922L12.1453 20.6202C12.9893 20.9362 13.7147 21.5268 14.1747 22.3108L14.588 22.1828L26.4147 19.1095C26.5418 19.0764 26.6742 19.0687 26.8043 19.0868C26.9344 19.1048 27.0597 19.1484 27.173 19.2148C27.2862 19.2813 27.3853 19.3695 27.4646 19.4743C27.5438 19.579 27.6016 19.6984 27.6347 19.8255C27.6678 19.9526 27.6755 20.085 27.6574 20.2151C27.6394 20.3452 27.5958 20.4705 27.5293 20.5838C27.4629 20.6971 27.3747 20.7962 27.2699 20.8754C27.1651 20.9546 27.0458 21.0124 26.9187 21.0455L15.1347 24.1068L14.6973 24.2428C14.688 25.9362 13.5187 27.4842 11.7507 27.9442C9.62934 28.4962 7.44934 27.2748 6.88134 25.2188C6.31334 23.1615 7.57201 21.0468 9.69201 20.4962C9.79647 20.4693 9.90187 20.4461 10.008 20.4268L7.13867 10.0428C7.06143 9.77606 6.91646 9.53381 6.71786 9.33965C6.51927 9.14549 6.2738 9.00603 6.00534 8.93484L3.73334 8.30418C3.60673 8.26918 3.48826 8.20958 3.38469 8.12879C3.28112 8.048 3.19448 7.94759 3.12972 7.83331C3.06496 7.71902 3.02336 7.5931 3.00728 7.46273C2.9912 7.33236 3.00096 7.2001 3.03601 7.07351Z" fill="white"/>
</svg>
