<svg width="16" height="17" viewBox="0 0 16 17" fill="none" xmlns="http://www.w3.org/2000/svg">
<path fill-rule="evenodd" clip-rule="evenodd" d="M0.666748 2.07777C0.666748 1.90096 0.736986 1.73139 0.86201 1.60636C0.987034 1.48134 1.1566 1.4111 1.33341 1.4111H8.66675C8.84356 1.4111 9.01313 1.48134 9.13815 1.60636C9.26318 1.73139 9.33341 1.90096 9.33341 2.07777V5.4111H12.0001C12.4378 5.4111 12.8713 5.49732 13.2757 5.66484C13.6801 5.83235 14.0476 6.07788 14.3571 6.38741C14.6666 6.69694 14.9122 7.06441 15.0797 7.46882C15.2472 7.87324 15.3334 8.3067 15.3334 8.74444V11.4111C15.3335 11.8403 15.1955 12.2581 14.94 12.6029C14.6844 12.9476 14.3247 13.2011 13.9141 13.3258C13.7918 13.7291 13.5453 14.0835 13.2096 14.3384C12.8739 14.5933 12.4663 14.7356 12.045 14.745C11.6236 14.7545 11.2101 14.6306 10.8633 14.3911C10.5166 14.1515 10.2543 13.8085 10.1141 13.4111H5.88675C5.7465 13.8085 5.48428 14.1515 5.13752 14.3911C4.79076 14.6306 4.37719 14.7545 3.95583 14.745C3.53448 14.7356 3.12689 14.5933 2.79123 14.3384C2.45558 14.0835 2.20902 13.7291 2.08675 13.3258C1.67597 13.2012 1.31616 12.9478 1.06046 12.603C0.804756 12.2582 0.666723 11.8404 0.666748 11.4111V8.74444H4.66675C4.84356 8.74444 5.01313 8.6742 5.13815 8.54917C5.26318 8.42415 5.33341 8.25458 5.33341 8.07777C5.33341 7.90096 5.26318 7.73139 5.13815 7.60636C5.01313 7.48134 4.84356 7.4111 4.66675 7.4111H0.666748V6.07777H3.33341C3.51023 6.07777 3.67979 6.00753 3.80482 5.88251C3.92984 5.75748 4.00008 5.58791 4.00008 5.4111C4.00008 5.23429 3.92984 5.06472 3.80482 4.9397C3.67979 4.81467 3.51023 4.74444 3.33341 4.74444H0.666748V2.07777ZM9.33341 12.0778H10.1141C10.2459 11.7047 10.4853 11.3792 10.8022 11.1423C11.1191 10.9053 11.4991 10.7677 11.8941 10.7468C12.2892 10.7259 12.6816 10.8226 13.0217 11.0248C13.3618 11.2269 13.6343 11.5254 13.8047 11.8824C13.8667 11.8206 13.9159 11.7471 13.9494 11.6663C13.983 11.5854 14.0002 11.4987 14.0001 11.4111V8.74444C14.0001 8.214 13.7894 7.70529 13.4143 7.33022C13.0392 6.95515 12.5305 6.74444 12.0001 6.74444H9.33341V12.0778ZM4.66675 12.7444C4.66675 12.5676 4.59651 12.3981 4.47149 12.273C4.34646 12.148 4.17689 12.0778 4.00008 12.0778C3.82327 12.0778 3.6537 12.148 3.52868 12.273C3.40365 12.3981 3.33341 12.5676 3.33341 12.7444C3.33341 12.9212 3.40365 13.0908 3.52868 13.2158C3.6537 13.3409 3.82327 13.4111 4.00008 13.4111C4.17689 13.4111 4.34646 13.3409 4.47149 13.2158C4.59651 13.0908 4.66675 12.9212 4.66675 12.7444ZM11.5287 12.2731C11.4667 12.3349 11.4174 12.4083 11.3839 12.4892C11.3504 12.5701 11.3332 12.6569 11.3334 12.7444C11.3334 12.8987 11.3868 13.0482 11.4847 13.1674C11.5825 13.2866 11.7186 13.3683 11.8699 13.3984C12.0212 13.4285 12.1782 13.4053 12.3142 13.3326C12.4503 13.2599 12.5569 13.1423 12.616 12.9998C12.675 12.8573 12.6828 12.6988 12.6381 12.5512C12.5933 12.4036 12.4988 12.276 12.3706 12.1903C12.2423 12.1046 12.0883 12.066 11.9348 12.0811C11.7813 12.0962 11.6378 12.1641 11.5287 12.2731Z" fill="white"/>
</svg>
