<svg width="32" height="33" viewBox="0 0 32 33" fill="none" xmlns="http://www.w3.org/2000/svg">
<path d="M25.8993 6.17816C24.6016 4.86764 23.0578 3.82643 21.3565 3.11436C19.6552 2.40229 17.8299 2.03339 15.9856 2.02885C14.1413 2.02431 12.3143 2.38422 10.6095 3.08791C8.90474 3.7916 7.3558 4.82519 6.05168 6.12931C4.74756 7.43343 3.71396 8.98238 3.01028 10.6872C2.30659 12.3919 1.94668 14.219 1.95121 16.0633C1.95575 17.9076 2.32466 19.7328 3.03673 21.4341C3.7488 23.1354 4.79 24.6792 6.10053 25.9769C7.39821 27.2874 8.94205 28.3286 10.6433 29.0407C12.3446 29.7528 14.1699 30.1217 16.0142 30.1262C17.8585 30.1308 19.6855 29.7709 21.3903 29.0672C23.0951 28.3635 24.644 27.3299 25.9481 26.0258C27.2523 24.7216 28.2858 23.1727 28.9895 21.4679C29.6932 19.7631 30.0531 17.9361 30.0486 16.0918C30.0441 14.2475 29.6752 12.4223 28.9631 10.721C28.251 9.01969 27.2098 7.47585 25.8993 6.17816ZM20.4999 13.0775C20.7966 13.0775 21.0866 13.1655 21.3333 13.3303C21.5799 13.4952 21.7722 13.7294 21.8857 14.0035C21.9993 14.2776 22.029 14.5792 21.9711 14.8702C21.9132 15.1611 21.7703 15.4284 21.5606 15.6382C21.3508 15.848 21.0835 15.9908 20.7925 16.0487C20.5016 16.1066 20.2 16.0769 19.9259 15.9634C19.6518 15.8498 19.4175 15.6576 19.2527 15.4109C19.0879 15.1642 18.9999 14.8742 18.9999 14.5775C18.9994 14.3804 19.0379 14.1851 19.1131 14.0029C19.1883 13.8207 19.2988 13.6552 19.4381 13.5158C19.5775 13.3764 19.7431 13.2659 19.9253 13.1907C20.1075 13.1155 20.3028 13.077 20.4999 13.0775ZM11.4999 13.0775C11.7966 13.0775 12.0866 13.1655 12.3333 13.3303C12.5799 13.4952 12.7722 13.7294 12.8857 14.0035C12.9993 14.2776 13.029 14.5792 12.9711 14.8702C12.9132 15.1611 12.7703 15.4284 12.5606 15.6382C12.3508 15.848 12.0835 15.9908 11.7925 16.0487C11.5016 16.1066 11.2 16.0769 10.9259 15.9634C10.6518 15.8498 10.4175 15.6576 10.2527 15.4109C10.0879 15.1642 9.9999 14.8742 9.9999 14.5775C9.99941 14.3804 10.0379 14.1851 10.1131 14.0029C10.1883 13.8207 10.2988 13.6552 10.4381 13.5158C10.5775 13.3764 10.7431 13.2659 10.9253 13.1907C11.1075 13.1155 11.3028 13.077 11.4999 13.0775ZM16.003 24.0775C13.1643 24.0775 10.7687 22.2344 10.0205 19.7132C9.95553 19.4932 9.8749 19.0775 9.8749 19.0775H22.1249C22.1249 19.0775 22.043 19.4957 21.9793 19.7132C21.243 22.2357 18.8418 24.0775 16.003 24.0775Z" fill="white"/>
</svg>
