<svg width="16" height="17" viewBox="0 0 16 17" fill="none" xmlns="http://www.w3.org/2000/svg">
<path d="M8.68539 1.41171C9.17188 1.40984 9.65837 1.41473 10.1447 1.42638L10.2741 1.43104C10.4234 1.43638 10.5707 1.44304 10.7487 1.45104C11.4581 1.48438 11.9421 1.59638 12.3667 1.76104C12.8067 1.93038 13.1774 2.15971 13.5481 2.53038C13.887 2.86345 14.1493 3.26634 14.3167 3.71104C14.4814 4.13571 14.5934 4.62038 14.6267 5.32971C14.6347 5.50704 14.6414 5.65504 14.6467 5.80438L14.6507 5.93371C14.6626 6.41984 14.6677 6.90611 14.6661 7.39238L14.6667 7.88971V8.76304C14.6684 9.24954 14.6633 9.73603 14.6514 10.2224L14.6474 10.3517C14.6421 10.501 14.6354 10.6484 14.6274 10.8264C14.5941 11.5357 14.4807 12.0197 14.3167 12.4444C14.1498 12.8896 13.8875 13.2928 13.5481 13.6257C13.2147 13.9646 12.8116 14.2269 12.3667 14.3944C11.9421 14.559 11.4581 14.671 10.7487 14.7044C10.5707 14.7124 10.4234 14.719 10.2741 14.7244L10.1447 14.7284C9.65838 14.7402 9.17188 14.7453 8.68539 14.7437L8.18806 14.7444H7.31539C6.8289 14.746 6.34241 14.7409 5.85606 14.729L5.72673 14.725C5.56847 14.7193 5.41024 14.7126 5.25206 14.705C4.54273 14.6717 4.05873 14.5584 3.63339 14.3944C3.18851 14.2273 2.78555 13.9649 2.45273 13.6257C2.11342 13.2926 1.85088 12.8894 1.68339 12.4444C1.51873 12.0197 1.40673 11.5357 1.37339 10.8264C1.36597 10.6682 1.3593 10.51 1.35339 10.3517L1.35006 10.2224C1.33777 9.73603 1.33221 9.24954 1.33339 8.76304V7.39238C1.33153 6.90611 1.33642 6.41984 1.34806 5.93371L1.35273 5.80438C1.35806 5.65504 1.36473 5.50704 1.37273 5.32971C1.40606 4.61971 1.51806 4.13638 1.68273 3.71104C1.85031 3.26612 2.11337 2.86334 2.45339 2.53104C2.78599 2.19154 3.1887 1.92876 3.63339 1.76104C4.05873 1.59638 4.54206 1.48438 5.25206 1.45104L5.72673 1.43104L5.85606 1.42771C6.34218 1.41542 6.82845 1.40987 7.31473 1.41104L8.68539 1.41171ZM8.00006 4.74504C7.5584 4.7388 7.1199 4.82039 6.71004 4.98509C6.30019 5.14978 5.92716 5.3943 5.61262 5.70441C5.29809 6.01453 5.04833 6.38407 4.87785 6.79155C4.70738 7.19904 4.61959 7.63634 4.61959 8.07804C4.61959 8.51975 4.70738 8.95705 4.87785 9.36454C5.04833 9.77202 5.29809 10.1416 5.61262 10.4517C5.92716 10.7618 6.30019 11.0063 6.71004 11.171C7.1199 11.3357 7.5584 11.4173 8.00006 11.411C8.88411 11.411 9.73196 11.0599 10.3571 10.4347C10.9822 9.80961 11.3334 8.96177 11.3334 8.07771C11.3334 7.19366 10.9822 6.34581 10.3571 5.72069C9.73196 5.09557 8.88411 4.74504 8.00006 4.74504ZM8.00006 6.07838C8.26573 6.07348 8.52971 6.12157 8.77659 6.21985C9.02347 6.31812 9.24828 6.4646 9.43791 6.65074C9.62754 6.83687 9.77818 7.05893 9.88102 7.30394C9.98387 7.54894 10.0369 7.81199 10.0369 8.0777C10.0369 8.34342 9.98404 8.60648 9.88128 8.85152C9.77852 9.09656 9.62795 9.31867 9.43839 9.50487C9.24882 9.69107 9.02405 9.83762 8.77721 9.93598C8.53037 10.0343 8.2664 10.0825 8.00073 10.0777C7.47029 10.0777 6.96159 9.867 6.58651 9.49192C6.21144 9.11685 6.00073 8.60814 6.00073 8.07771C6.00073 7.54728 6.21144 7.03857 6.58651 6.6635C6.96159 6.28842 7.47029 6.07771 8.00073 6.07771L8.00006 6.07838ZM11.5001 3.74504C11.285 3.75365 11.0816 3.84514 10.9325 4.00036C10.7833 4.15557 10.7001 4.36247 10.7001 4.57771C10.7001 4.79295 10.7833 4.99985 10.9325 5.15506C11.0816 5.31028 11.285 5.40177 11.5001 5.41038C11.7211 5.41038 11.933 5.32258 12.0893 5.1663C12.2456 5.01002 12.3334 4.79806 12.3334 4.57704C12.3334 4.35603 12.2456 4.14407 12.0893 3.98779C11.933 3.83151 11.7211 3.74371 11.5001 3.74371V3.74504Z" fill="white"/>
</svg>
