<svg width="149" height="150" viewBox="0 0 149 150" fill="none" xmlns="http://www.w3.org/2000/svg">
<g clip-path="url(#clip0_145_376)">
<path d="M45.5278 68.3694L41.3889 81.2H49.6667L45.5278 68.3694Z" fill="#B4B4B4" fill-opacity="0.1"/>
<path d="M125.408 12.4944H59.1862V33.1888H75.7417V41.4666H21.9362C14.9001 41.4666 9.51953 46.8472 9.51953 53.8833V99.4111C9.51953 106.447 14.9001 111.828 21.9362 111.828H26.0751V132.936L52.1501 111.828H79.8806V82.8555H125.408C132.445 82.8555 137.825 77.4749 137.825 70.4388V24.9111C137.825 17.8749 132.445 12.4944 125.408 12.4944ZM54.2195 94.8583L52.1501 88.2361H39.3195L36.8362 94.8583H26.9029L40.5612 58.0222H50.4945L64.1529 94.8583H54.2195ZM117.131 62.1611V70.4388C111.75 70.4388 105.956 68.7833 100.989 66.2999C96.0223 68.7833 90.2279 70.0249 84.4334 70.4388L84.0195 62.1611C86.9168 62.1611 89.814 61.7472 92.7112 60.9194C88.9862 57.1944 86.5029 52.6416 85.2612 47.6749H93.9529C95.1945 51.3999 97.6779 54.2972 100.575 56.7805C105.128 53.0555 108.025 47.6749 108.439 41.4666H83.6056V33.1888H96.0223V24.9111H104.3V33.1888H117.958L118.372 37.3277C118.786 46.0194 115.475 54.7111 109.267 60.9194C112.164 61.7472 114.647 62.1611 117.131 62.1611Z" fill="#B4B4B4" fill-opacity="0.1"/>
</g>
<defs>
<clipPath id="clip0_145_376">
<rect width="149" height="149" fill="white" transform="translate(0 0.0777588)"/>
</clipPath>
</defs>
</svg>
