<svg width="16" height="17" viewBox="0 0 16 17" fill="none" xmlns="http://www.w3.org/2000/svg">
<path d="M14.5 14.0778V8.44807C14.164 8.5736 13.8097 8.64306 13.4513 8.6537C13.4144 8.6537 13.3794 8.65526 13.345 8.65526C12.7178 8.65695 12.1024 8.48381 11.5681 8.15526C11.0339 8.48375 10.4187 8.65689 9.79156 8.65526C9.167 8.6561 8.55488 8.48063 8.02563 8.14901C7.48899 8.4819 6.86962 8.65732 6.23812 8.65526C5.60927 8.65609 4.99313 8.47813 4.46156 8.14213C3.92999 8.47813 3.31386 8.65609 2.685 8.65526C2.65094 8.65526 2.61656 8.65526 2.57969 8.6537H2.57781C2.20888 8.64274 1.84446 8.56941 1.5 8.43682V14.0778H0.5V15.0778H15.5V14.0778H14.5ZM7 12.0778H4V9.70276C4 9.66961 4.01317 9.63781 4.03661 9.61437C4.06005 9.59093 4.09185 9.57776 4.125 9.57776H6.875C6.90815 9.57776 6.93995 9.59093 6.96339 9.61437C6.98683 9.63781 7 9.66961 7 9.70276V12.0778ZM12 14.0778H9.5V9.70276C9.5 9.66961 9.51317 9.63781 9.53661 9.61437C9.56005 9.59093 9.59185 9.57776 9.625 9.57776H11.875C11.9082 9.57776 11.9399 9.59093 11.9634 9.61437C11.9868 9.63781 12 9.66961 12 9.70276V14.0778ZM15.3928 5.39901L13.9341 2.07776C13.5 1.07776 13.5 1.07776 12.5 1.07776H3.5C2.5 1.07776 2.5 1.07776 2.06437 2.07776L0.605625 5.39901C0.324375 6.00557 0.695938 6.62838 0.69625 6.6287L0.709063 6.64932C0.722188 6.66995 0.744375 6.70401 0.759687 6.72338C0.762812 6.72745 0.765625 6.73182 0.768438 6.73588L0.932187 6.93557L1.09812 7.0962L1.11125 7.10745C1.20351 7.18617 1.30219 7.25704 1.40625 7.31932V7.32088C1.74635 7.5269 2.13382 7.64174 2.53125 7.65432H2.60844C3.20977 7.65544 3.78919 7.42865 4.23 7.01963C4.29365 6.96064 4.35386 6.89804 4.41031 6.83213C4.46696 6.89797 4.52726 6.96057 4.59094 7.01963C5.03174 7.42865 5.61116 7.65544 6.2125 7.65432C6.94 7.65432 7.58969 7.34182 8.01344 6.85557C8.01407 6.85498 8.01491 6.85465 8.01578 6.85465C8.01665 6.85465 8.01749 6.85498 8.01812 6.85557L8.195 7.01995C8.6359 7.42901 9.21544 7.6558 9.81688 7.65463C10.5447 7.65463 11.1953 7.34213 11.6187 6.85432C12.0425 7.34213 12.6928 7.65463 13.4209 7.65463H13.4987C13.8862 7.64017 14.2632 7.52492 14.5925 7.32026C14.6222 7.30245 14.6506 7.2837 14.6794 7.26495C14.9015 7.11512 15.0948 6.92648 15.25 6.70807L15.3125 6.61432C15.3406 6.55057 15.6628 5.97995 15.3928 5.39901Z" fill="white"/>
</svg>
