<svg width="16" height="17" viewBox="0 0 16 17" fill="none" xmlns="http://www.w3.org/2000/svg">
<path d="M7.99995 4.74443C8.18884 4.74443 8.34728 4.68043 8.47528 4.55243C8.60328 4.42443 8.66706 4.2662 8.66661 4.07776C8.66661 3.88887 8.60261 3.73043 8.47461 3.60243C8.34661 3.47443 8.18839 3.41065 7.99995 3.41109C7.81106 3.41109 7.65261 3.47509 7.52461 3.60309C7.39661 3.73109 7.33284 3.88931 7.33328 4.07776C7.33328 4.26665 7.39728 4.42509 7.52528 4.55309C7.65328 4.68109 7.8115 4.74487 7.99995 4.74443ZM9.88328 4.74443H11.0499C11.3833 4.74443 11.6722 4.85554 11.9166 5.07776C12.1611 5.29998 12.3111 5.5722 12.3666 5.89443L13.3166 12.5611C13.3722 12.9611 13.2693 13.314 13.0079 13.6198C12.7466 13.9255 12.4106 14.0782 11.9999 14.0778H3.99995C3.58884 14.0778 3.25261 13.9249 2.99128 13.6191C2.72995 13.3133 2.62728 12.9606 2.68328 12.5611L3.63328 5.89443C3.68884 5.5722 3.83884 5.29998 4.08328 5.07776C4.32773 4.85554 4.61661 4.74443 4.94995 4.74443H6.11661C6.08328 4.63331 6.0555 4.52509 6.03328 4.41976C6.01106 4.31443 5.99995 4.20043 5.99995 4.07776C5.99995 3.5222 6.19439 3.04998 6.58328 2.66109C6.97217 2.2722 7.44439 2.07776 7.99995 2.07776C8.5555 2.07776 9.02773 2.2722 9.41661 2.66109C9.8055 3.04998 9.99995 3.5222 9.99995 4.07776C9.99995 4.19998 9.98884 4.31398 9.96661 4.41976C9.94439 4.52554 9.91661 4.63376 9.88328 4.74443Z" fill="white"/>
</svg>
