<svg width="16" height="17" viewBox="0 0 16 17" fill="none" xmlns="http://www.w3.org/2000/svg">
<path d="M3.41333 3.41109H12.58L11.9533 2.74443H3.95333L3.41333 3.41109ZM13.6933 3.56443C13.8867 3.79109 14 4.07776 14 4.41109V12.7444C14 13.098 13.8595 13.4372 13.6095 13.6872C13.3594 13.9373 13.0203 14.0778 12.6667 14.0778H3.33333C2.97971 14.0778 2.64057 13.9373 2.39052 13.6872C2.14048 13.4372 2 13.098 2 12.7444V4.41109C2 4.07776 2.11333 3.79109 2.30667 3.56443L3.22667 2.44443C3.41333 2.21776 3.68667 2.07776 4 2.07776H12C12.3133 2.07776 12.5867 2.21776 12.7667 2.44443L13.6933 3.56443ZM4 12.0778H8V10.0778H4V12.0778Z" fill="white"/>
</svg>
