<svg width="16" height="17" viewBox="0 0 16 17" fill="none" xmlns="http://www.w3.org/2000/svg">
<path d="M12.2189 15.0776C11.6089 15.0776 10.752 14.857 9.46885 14.1401C7.90854 13.2651 6.70167 12.4573 5.14979 10.9095C3.65354 9.41415 2.92542 8.44603 1.90636 6.59165C0.755105 4.4979 0.951355 3.4004 1.17073 2.93134C1.43198 2.37072 1.81761 2.0354 2.31604 1.70259C2.59915 1.5171 2.89875 1.3581 3.21104 1.22759C3.24229 1.21415 3.27136 1.20134 3.29729 1.18978C3.45198 1.12009 3.68635 1.01478 3.98323 1.12728C4.18135 1.20165 4.35823 1.35384 4.63511 1.62728C5.20292 2.18728 5.97885 3.43447 6.2651 4.04697C6.45729 4.45978 6.58448 4.73228 6.58479 5.0379C6.58479 5.39572 6.40479 5.67165 6.18635 5.96947C6.14542 6.0254 6.10479 6.07884 6.06542 6.13072C5.8276 6.44322 5.77542 6.53353 5.80979 6.69478C5.87948 7.01884 6.39917 7.98353 7.25323 8.83572C8.10729 9.6879 9.04417 10.1748 9.36948 10.2442C9.5376 10.2801 9.62979 10.2257 9.95229 9.97947C9.99854 9.94415 10.046 9.90759 10.0957 9.87103C10.4289 9.62322 10.692 9.4479 11.0414 9.4479H11.0432C11.3473 9.4479 11.6076 9.57978 12.0389 9.79728C12.6014 10.081 13.886 10.847 14.4495 11.4154C14.7235 11.6917 14.8764 11.8679 14.951 12.0657C15.0635 12.3635 14.9576 12.597 14.8885 12.7532C14.877 12.7792 14.8642 12.8076 14.8507 12.8392C14.7192 13.1509 14.5592 13.4499 14.3729 13.7323C14.0407 14.2292 13.7042 14.6138 13.1423 14.8754C12.8538 15.0119 12.538 15.081 12.2189 15.0776Z" fill="white"/>
</svg>
