<svg width="16" height="17" viewBox="0 0 16 17" fill="none" xmlns="http://www.w3.org/2000/svg">
<path d="M9.4139 7.06443C9.28888 6.93944 9.11934 6.86924 8.94257 6.86924C8.76579 6.86924 8.59625 6.93944 8.47123 7.06443L7.9999 7.53576C7.7498 7.78577 7.41063 7.92619 7.057 7.92613C6.70337 7.92606 6.36424 7.78552 6.11423 7.53543C5.86422 7.28533 5.7238 6.94615 5.72387 6.59252C5.72393 6.23889 5.86447 5.89977 6.11457 5.64976L9.8679 1.89509C10.7565 1.69298 11.6862 1.77616 12.5249 2.13281C13.3635 2.48946 14.0683 3.10142 14.5392 3.88169C15.01 4.66195 15.2228 5.57079 15.1475 6.47898C15.0721 7.38717 14.7123 8.24847 14.1192 8.94043L12.7139 10.3638L9.4139 7.06443ZM2.10723 3.05776C2.79707 2.36801 3.69938 1.93108 4.66827 1.8176C5.63717 1.70413 6.61602 1.92074 7.44657 2.43243L5.17123 4.70709C4.67498 5.19816 4.39111 5.86427 4.38057 6.56234C4.37004 7.26041 4.63369 7.93477 5.1149 8.4406C5.5961 8.94642 6.25649 9.24335 6.95422 9.26763C7.65195 9.2919 8.33137 9.04158 8.84657 8.57043L8.94257 8.47843L11.7712 11.3071L8.94257 14.1351C8.69253 14.3851 8.35345 14.5255 7.9999 14.5255C7.64635 14.5255 7.30727 14.3851 7.05723 14.1351L2.10657 9.18576C1.70412 8.78336 1.38488 8.30564 1.16707 7.77985C0.949262 7.25407 0.837158 6.69054 0.837158 6.12143C0.837158 5.55232 0.949262 4.98878 1.16707 4.463C1.38488 3.93722 1.70412 3.45949 2.10657 3.05709L2.10723 3.05776Z" fill="white"/>
</svg>
