<svg width="20" height="21" viewBox="0 0 20 21" fill="none" xmlns="http://www.w3.org/2000/svg">
<g clip-path="url(#clip0_104_171)">
<path fill-rule="evenodd" clip-rule="evenodd" d="M10.0001 1.74438C5.39758 1.74438 1.66675 5.47522 1.66675 10.0777C1.66675 11.6527 2.10425 13.1277 2.86508 14.3844L2.12175 16.9111C2.07907 17.0561 2.07626 17.21 2.11362 17.3565C2.15098 17.5031 2.22712 17.6368 2.33405 17.7438C2.44097 17.8507 2.57473 17.9268 2.72126 17.9642C2.86779 18.0015 3.02168 17.9987 3.16675 17.9561L5.69341 17.2127C6.99231 17.9986 8.48193 18.4131 10.0001 18.4111C14.6026 18.4111 18.3334 14.6802 18.3334 10.0777C18.3334 5.47522 14.6026 1.74438 10.0001 1.74438ZM8.11508 11.9636C9.80091 13.6486 11.4101 13.8711 11.9784 13.8919C12.8426 13.9236 13.6842 13.2636 14.0117 12.4977C14.0531 12.4024 14.0681 12.2978 14.0552 12.1948C14.0423 12.0917 14.002 11.994 13.9384 11.9119C13.4817 11.3286 12.8642 10.9094 12.2609 10.4927C12.1349 10.4056 11.9801 10.3707 11.829 10.3952C11.6778 10.4198 11.542 10.5019 11.4501 10.6244L10.9501 11.3869C10.9238 11.4279 10.8828 11.4573 10.8356 11.469C10.7883 11.4808 10.7384 11.4741 10.6959 11.4502C10.3567 11.2561 9.86258 10.9261 9.50758 10.5711C9.15258 10.2161 8.84258 9.74438 8.66842 9.42689C8.64682 9.38655 8.64058 9.33975 8.65084 9.29516C8.66111 9.25057 8.68719 9.21122 8.72425 9.18439L9.49425 8.61272C9.60414 8.51717 9.67505 8.38455 9.69349 8.2401C9.71193 8.09566 9.67661 7.94947 9.59425 7.82939C9.22091 7.28272 8.78592 6.58772 8.15508 6.12688C8.07367 6.06789 7.9783 6.0311 7.87836 6.02014C7.77842 6.00918 7.67734 6.02443 7.58508 6.06438C6.81842 6.39272 6.15508 7.23439 6.18675 8.10022C6.20758 8.66855 6.43008 10.2777 8.11508 11.9636Z" fill="white"/>
</g>
<defs>
<clipPath id="clip0_104_171">
<rect width="20" height="20" fill="white" transform="translate(0 0.0776367)"/>
</clipPath>
</defs>
</svg>
